# Blender v2.92.0 OBJ File: ''
# www.blender.org
mtllib sircle.mtl
o Circle
v 0.000000 0.000000 -1.713271
v 0.000000 0.334243 -1.680351
v 0.000000 0.655640 -1.582856
v 0.000000 0.951842 -1.424532
v 0.000000 1.211465 -1.211465
v 0.000000 1.424533 -0.951842
v 0.000000 1.582856 -0.655640
v 0.000000 1.680351 -0.334243
v 0.000000 1.713271 -0.000000
v 0.000000 1.680351 0.334242
v 0.000000 1.582856 0.655640
v 0.000000 1.424533 0.951842
v 0.000000 1.211465 1.211465
v 0.000000 0.951842 1.424533
v 0.000000 0.655640 1.582856
v 0.000000 0.334242 1.680351
v -0.000000 -0.000001 1.713271
v -0.000000 -0.334243 1.680351
v -0.000000 -0.655641 1.582855
v -0.000000 -0.951843 1.424532
v -0.000000 -1.211466 1.211465
v -0.000000 -1.424533 0.951841
v -0.000000 -1.582856 0.655639
v -0.000000 -1.680351 0.334241
v -0.000000 -1.713271 -0.000002
v -0.000000 -1.680350 -0.334244
v -0.000000 -1.582855 -0.655642
v -0.000000 -1.424531 -0.951844
v -0.000000 -1.211464 -1.211467
v -0.000000 -0.951840 -1.424534
v -0.000000 -0.655638 -1.582857
v -0.000000 -0.334240 -1.680351
v 0.000000 0.000000 -1.713271
v 0.000000 0.334243 -1.680351
v 0.000000 0.655640 -1.582856
v 0.000000 0.951842 -1.424532
v 0.000000 1.211465 -1.211465
v 0.000000 1.424533 -0.951842
v 0.000000 1.582856 -0.655640
v 0.000000 1.680351 -0.334243
v 0.000000 1.713271 -0.000000
v 0.000000 1.680351 0.334242
v 0.000000 1.582856 0.655640
v 0.000000 1.424533 0.951842
v 0.000000 1.211465 1.211465
v 0.000000 0.951842 1.424533
v 0.000000 0.655640 1.582856
v 0.000000 0.334242 1.680351
v -0.000000 -0.000001 1.713271
v -0.000000 -0.334243 1.680351
v -0.000000 -0.655641 1.582855
v -0.000000 -0.951843 1.424532
v -0.000000 -1.211466 1.211465
v -0.000000 -1.424533 0.951841
v -0.000000 -1.582856 0.655639
v -0.000000 -1.680351 0.334241
v -0.000000 -1.713271 -0.000002
v -0.000000 -1.680350 -0.334244
v -0.000000 -1.582855 -0.655642
v -0.000000 -1.424531 -0.951844
v -0.000000 -1.211464 -1.211467
v -0.000000 -0.951840 -1.424534
v -0.000000 -0.655638 -1.582857
v -0.000000 -0.334240 -1.680351
v 0.000000 0.000000 -0.000001
vt 0.000000 0.000000
vt 0.000000 0.000000
vt 0.000000 0.000000
vt 0.000000 0.000000
vt 0.000000 0.000000
vt 0.000000 0.000000
vt 0.000000 0.000000
vt 0.000000 0.000000
vt 0.000000 0.000000
vt 0.000000 0.000000
vt 0.000000 0.000000
vt 0.000000 0.000000
vt 0.000000 0.000000
vt 0.000000 0.000000
vt 0.000000 0.000000
vt 0.000000 0.000000
vt 0.000000 0.000000
vt 0.000000 0.000000
vt 0.000000 0.000000
vt 0.000000 0.000000
vt 0.000000 0.000000
vt 0.000000 0.000000
vt 0.000000 0.000000
vt 0.000000 0.000000
vt 0.000000 0.000000
vt 0.000000 0.000000
vt 0.000000 0.000000
vt 0.000000 0.000000
vt 0.000000 0.000000
vt 0.000000 0.000000
vt 0.000000 0.000000
vt 0.000000 0.000000
vt 0.000000 0.000000
vt 0.000000 0.000000
vt 0.000000 0.000000
vt 0.000000 0.000000
vt 0.000000 0.000000
vt 0.000000 0.000000
vt 0.000000 0.000000
vt 0.000000 0.000000
vt 0.000000 0.000000
vt 0.000000 0.000000
vt 0.000000 0.000000
vt 0.000000 0.000000
vt 0.000000 0.000000
vt 0.000000 0.000000
vt 0.000000 0.000000
vt 0.000000 0.000000
vt 0.000000 0.000000
vt 0.000000 0.000000
vt 0.000000 0.000000
vt 0.000000 0.000000
vt 0.000000 0.000000
vt 0.000000 0.000000
vt 0.000000 0.000000
vt 0.000000 0.000000
vt 0.000000 0.000000
vt 0.000000 0.000000
vt 0.000000 0.000000
vt 0.000000 0.000000
vt 0.000000 0.000000
vt 0.000000 0.000000
vt 0.000000 0.000000
vt 0.000000 0.000000
vt 0.000000 0.000000
vn 0.0000 0.0000 1.0000
vn -1.0000 0.0000 0.0000
usemtl None
s off
f 18/1/1 17/2/1 49/3/1 50/4/1
f 5/5/1 4/6/1 36/7/1 37/8/1
f 32/9/1 31/10/1 63/11/1 64/12/1
f 19/13/1 18/1/1 50/4/1 51/14/1
f 6/15/1 5/5/1 37/8/1 38/16/1
f 1/17/1 32/9/1 64/12/1 33/18/1
f 20/19/1 19/13/1 51/14/1 52/20/1
f 7/21/1 6/15/1 38/16/1 39/22/1
f 21/23/1 20/19/1 52/20/1 53/24/1
f 8/25/1 7/21/1 39/22/1 40/26/1
f 22/27/1 21/23/1 53/24/1 54/28/1
f 9/29/1 8/25/1 40/26/1 41/30/1
f 23/31/1 22/27/1 54/28/1 55/32/1
f 10/33/1 9/29/1 41/30/1 42/34/1
f 24/35/1 23/31/1 55/32/1 56/36/1
f 11/37/1 10/33/1 42/34/1 43/38/1
f 25/39/1 24/35/1 56/36/1 57/40/1
f 12/41/1 11/37/1 43/38/1 44/42/1
f 26/43/1 25/39/1 57/40/1 58/44/1
f 13/45/1 12/41/1 44/42/1 45/46/1
f 27/47/1 26/43/1 58/44/1 59/48/1
f 14/49/1 13/45/1 45/46/1 46/50/1
f 28/51/1 27/47/1 59/48/1 60/52/1
f 15/53/1 14/49/1 46/50/1 47/54/1
f 2/55/1 1/17/1 33/18/1 34/56/1
f 29/57/1 28/51/1 60/52/1 61/58/1
f 16/59/1 15/53/1 47/54/1 48/60/1
f 3/61/1 2/55/1 34/56/1 35/62/1
f 30/63/1 29/57/1 61/58/1 62/64/1
f 17/2/1 16/59/1 48/60/1 49/3/1
f 4/6/1 3/61/1 35/62/1 36/7/1
f 31/10/1 30/63/1 62/64/1 63/11/1
f 45/46/2 44/42/2 65/65/2
f 59/48/2 58/44/2 65/65/2
f 46/50/2 45/46/2 65/65/2
f 60/52/2 59/48/2 65/65/2
f 47/54/2 46/50/2 65/65/2
f 34/56/2 33/18/2 65/65/2
f 61/58/2 60/52/2 65/65/2
f 48/60/2 47/54/2 65/65/2
f 35/62/2 34/56/2 65/65/2
f 62/64/2 61/58/2 65/65/2
f 49/3/2 48/60/2 65/65/2
f 36/7/2 35/62/2 65/65/2
f 63/11/2 62/64/2 65/65/2
f 50/4/2 49/3/2 65/65/2
f 37/8/2 36/7/2 65/65/2
f 64/12/2 63/11/2 65/65/2
f 51/14/2 50/4/2 65/65/2
f 38/16/2 37/8/2 65/65/2
f 33/18/2 64/12/2 65/65/2
f 52/20/2 51/14/2 65/65/2
f 39/22/2 38/16/2 65/65/2
f 53/24/2 52/20/2 65/65/2
f 40/26/2 39/22/2 65/65/2
f 54/28/2 53/24/2 65/65/2
f 41/30/2 40/26/2 65/65/2
f 55/32/2 54/28/2 65/65/2
f 42/34/2 41/30/2 65/65/2
f 56/36/2 55/32/2 65/65/2
f 43/38/2 42/34/2 65/65/2
f 57/40/2 56/36/2 65/65/2
f 44/42/2 43/38/2 65/65/2
f 58/44/2 57/40/2 65/65/2
